#N canvas 66 222 630 581 10;
#X obj 8 9 widget-vessConnect \$0;
#X obj 13 101 r \$0-from-vess;
#X obj 13 119 spigot;
#X obj 13 138 print from-vess;
#X obj 13 83 tgl 15 0 empty empty empty 17 7 0 10 -262144 -1 -1 0 1
;
#X obj 124 101 AS_infoport;
#X obj 124 138 print infoport;
#X obj 124 83 tgl 15 0 empty empty empty 17 7 0 10 -262144 -1 -1 0
1;
#X obj 124 119 spigot;
#X obj 229 84 tgl 15 0 empty empty empty 17 7 0 10 -262144 -1 -1 0
1;
#X obj 229 120 spigot;
#X obj 229 101 r \$0-to-vess-print;
#X obj 229 139 print to-vess;
#X msg 380 29 clear;
#X msg 423 66 debug;
#X msg 401 47 refresh;
#X msg 486 115 setGrid 10;
#X msg 496 37 load test.xml;
#X msg 497 61 save test.xml;
#X obj 447 149 s \$0-to-vess;
#X obj 169 505 s \$0-to-vess;
#X msg 56 256 createNode foo asBasicNode;
#X msg 84 279 createNode child1 asShape;
#X msg 107 300 /child1 setParent foo;
#X msg 158 342 /child2 setParent foo;
#X msg 136 322 createNode child2 asShape;
#X msg 171 362 createNode child3 asShape;
#X msg 193 382 /child3 setParent foo;
#X msg 281 417 deleteNode foo;
#X msg 299 443 deleteGraph foo;
#X msg 26 236 createNode sheefa asBasicNode;
#X connect 1 0 2 0;
#X connect 2 0 3 0;
#X connect 4 0 2 1;
#X connect 5 0 8 0;
#X connect 7 0 8 1;
#X connect 8 0 6 0;
#X connect 9 0 10 1;
#X connect 10 0 12 0;
#X connect 11 0 10 0;
#X connect 13 0 19 0;
#X connect 14 0 19 0;
#X connect 15 0 19 0;
#X connect 16 0 19 0;
#X connect 17 0 19 0;
#X connect 18 0 19 0;
#X connect 21 0 20 0;
#X connect 22 0 20 0;
#X connect 23 0 20 0;
#X connect 24 0 20 0;
#X connect 25 0 20 0;
#X connect 26 0 20 0;
#X connect 27 0 20 0;
#X connect 28 0 20 0;
#X connect 29 0 20 0;
#X connect 30 0 20 0;
