#N canvas 140 470 865 635 10;
#X obj 13 119 spigot;
#X obj 13 83 tgl 15 0 empty empty empty 17 7 0 10 -262144 -1 -1 0 1
;
#X obj 124 101 AS_infoport;
#X obj 124 138 print infoport;
#X obj 124 83 tgl 15 0 empty empty empty 17 7 0 10 -262144 -1 -1 0
1;
#X obj 124 119 spigot;
#X obj 229 84 tgl 15 0 empty empty empty 17 7 0 10 -262144 -1 -1 0
1;
#X obj 229 120 spigot;
#X msg 380 29 clear;
#X msg 423 66 debug;
#X msg 401 47 refresh;
#X msg 486 115 setGrid 10;
#X msg 496 37 load test.xml;
#X msg 497 61 save test.xml;
#X msg 107 300 /child1 setParent foo;
#X msg 158 342 /child2 setParent foo;
#X msg 193 382 /child3 setParent foo;
#X msg 281 417 deleteNode foo;
#X msg 299 443 deleteGraph foo;
#X obj 8 9 widget-spinConnect \$0;
#X obj 447 149 s \$0-to-SPIN;
#X obj 229 139 print to-SPIN;
#X obj 229 101 r \$0-to-SPIN-print;
#X obj 13 138 print from-SPIN;
#X obj 13 101 r \$0-from-SPIN;
#X obj 169 505 s \$0-to-SPIN;
#X msg 56 256 createNode foo GroupNode;
#X msg 84 279 createNode child1 ShapeNode;
#X msg 136 322 createNode child2 ShapeNode;
#X msg 171 362 createNode child3 ShapeNode;
#X text 19 233 Creating parent/child relationships & deleting:;
#X msg 425 229 createNode shvid SharedVideoNode;
#X obj 454 446 s \$0-to-SPIN;
#X msg 472 329 /shvid setShape \$1;
#X obj 471 256 vradio 10 1 0 7 empty empty empty 0 -8 0 10 -262144
-1 -1 2;
#X text 482 253 NULL;
#X text 482 263 Sphere;
#X text 482 273 Box;
#X text 482 283 Cylinder;
#X text 482 293 Capsule;
#X text 482 303 Cone;
#X text 482 313 Plane;
#X msg 498 353 /shvid setTranslation 0 5 0;
#X msg 500 385 /shvid setTextureID shm1;
#X msg 513 410 /shvid setTextureID shm2;
#X text 454 208 SharedVideoNode:;
#X msg 565 259 createNode shvid2 SharedVideoNode;
#X msg 607 286 /shvid2 setTranslation 1 5 0;
#X msg 627 306 /shvid2 setTextureID shm2;
#X msg 587 439 /shvid setTextureID shared_memory;
#X msg 540 487 /shvid setOrientation 30 0 20;
#X connect 0 0 23 0;
#X connect 1 0 0 1;
#X connect 2 0 5 0;
#X connect 4 0 5 1;
#X connect 5 0 3 0;
#X connect 6 0 7 1;
#X connect 7 0 21 0;
#X connect 8 0 20 0;
#X connect 9 0 20 0;
#X connect 10 0 20 0;
#X connect 11 0 20 0;
#X connect 12 0 20 0;
#X connect 13 0 20 0;
#X connect 14 0 25 0;
#X connect 15 0 25 0;
#X connect 16 0 25 0;
#X connect 17 0 25 0;
#X connect 18 0 25 0;
#X connect 22 0 7 0;
#X connect 24 0 0 0;
#X connect 26 0 25 0;
#X connect 27 0 25 0;
#X connect 28 0 25 0;
#X connect 29 0 25 0;
#X connect 31 0 32 0;
#X connect 33 0 32 0;
#X connect 34 0 33 0;
#X connect 42 0 32 0;
#X connect 43 0 32 0;
#X connect 44 0 32 0;
#X connect 46 0 32 0;
#X connect 47 0 32 0;
#X connect 48 0 32 0;
#X connect 49 0 32 0;
#X connect 50 0 32 0;
