#N canvas 76 368 630 581 10;
#X obj 13 119 spigot;
#X obj 13 83 tgl 15 0 empty empty empty 17 7 0 10 -262144 -1 -1 0 1
;
#X obj 124 101 AS_infoport;
#X obj 124 138 print infoport;
#X obj 124 83 tgl 15 0 empty empty empty 17 7 0 10 -262144 -1 -1 0
1;
#X obj 124 119 spigot;
#X obj 229 84 tgl 15 0 empty empty empty 17 7 0 10 -262144 -1 -1 0
1;
#X obj 229 120 spigot;
#X msg 380 29 clear;
#X msg 423 66 debug;
#X msg 401 47 refresh;
#X msg 486 115 setGrid 10;
#X msg 496 37 load test.xml;
#X msg 497 61 save test.xml;
#X msg 107 300 /child1 setParent foo;
#X msg 158 342 /child2 setParent foo;
#X msg 193 382 /child3 setParent foo;
#X msg 281 417 deleteNode foo;
#X msg 299 443 deleteGraph foo;
#X obj 8 9 widget-spinConnect \$0;
#X obj 447 149 s \$0-to-SPIN;
#X obj 229 139 print to-SPIN;
#X obj 229 101 r \$0-to-SPIN-print;
#X obj 13 138 print from-SPIN;
#X obj 13 101 r \$0-from-SPIN;
#X obj 169 505 s \$0-to-SPIN;
#X msg 56 256 createNode foo GroupNode;
#X msg 84 279 createNode child1 ShapeNode;
#X msg 136 322 createNode child2 ShapeNode;
#X msg 171 362 createNode child3 ShapeNode;
#X connect 0 0 23 0;
#X connect 1 0 0 1;
#X connect 2 0 5 0;
#X connect 4 0 5 1;
#X connect 5 0 3 0;
#X connect 6 0 7 1;
#X connect 7 0 21 0;
#X connect 8 0 20 0;
#X connect 9 0 20 0;
#X connect 10 0 20 0;
#X connect 11 0 20 0;
#X connect 12 0 20 0;
#X connect 13 0 20 0;
#X connect 14 0 25 0;
#X connect 15 0 25 0;
#X connect 16 0 25 0;
#X connect 17 0 25 0;
#X connect 18 0 25 0;
#X connect 22 0 7 0;
#X connect 24 0 0 0;
#X connect 26 0 25 0;
#X connect 27 0 25 0;
#X connect 28 0 25 0;
#X connect 29 0 25 0;
