#N canvas 640 600 1037 449 10;
#X obj 10 54 widget-spinConnect \$0;
#X obj 11 12 loadbang1;
#X obj 19 107 bng 15 250 50 0 empty empty empty 17 7 0 10 -262144 -1
-1;
#X obj 21 166 thisdir;
#X obj 514 42 widget-nodeEditor \$0;
#X text 514 20 To display / nodes in the current scene:;
#X obj 21 297 s \$0-to-SPIN;
#X msg 21 200 createNode dome ModelNode \, /dome setModelFromFile \$1/Resources/models/domeGrid.obj
;
#X obj 164 175 spin.toCamera \$0;
#X obj 21 135 t b b;
#X msg 79 152 setTranslation 0 -20 0;
#X msg 11 32 dome_viewer;
#X connect 1 0 11 0;
#X connect 2 0 9 0;
#X connect 3 0 7 0;
#X connect 7 0 6 0;
#X connect 9 0 3 0;
#X connect 9 1 10 0;
#X connect 10 0 8 0;
#X connect 11 0 0 0;
